<svg width="280" height="280" viewBox="0 0 280 280" fill="none" xmlns="http://www.w3.org/2000/svg">
<g filter="url(#filter0_d_51_320)">
<rect x="28" y="28" width="200" height="200" rx="20" fill="#0A1F3C"/>
</g>
<path d="M216.5 107C216.5 107 208.259 222.246 133.31 179.109C58.3608 135.973 41.5363 194.75 39.9996 226" stroke="url(#paint0_linear_51_320)" stroke-miterlimit="10"/>
<path d="M223 84.5C223 84.5 207.5 170 145 168C68.6121 161.665 67.9033 203.102 70.3532 228" stroke="url(#paint1_linear_51_320)" stroke-miterlimit="10"/>
<path d="M225.5 39C225.5 39 241.811 113.915 168.343 134.883C94.8746 155.85 94.7536 206.204 100.922 228" stroke="url(#paint2_linear_51_320)" stroke-miterlimit="10"/>
<path d="M51.204 103V95.721H49.29V93.691H51.204V91.487H49.29V89.457H51.204V82.294H55.177L57.613 89.457H60.542V82.294H63.413V89.457H65.298V91.487H63.413V93.691H65.298V95.721H63.413V103H59.411L56.917 95.721H54.046V103H51.204ZM54.046 93.691H56.279L55.554 91.487H53.988L54.046 93.691ZM60.6 98.65H60.745L60.629 95.721H59.672L60.6 98.65ZM53.959 89.457H54.916L53.93 86.354H53.814L53.959 89.457ZM59.034 93.691H60.6L60.542 91.487H58.309L59.034 93.691ZM82.4671 103V84.73H83.4531L76.2901 95.054H89.6591V98.041H72.6651V95.286L81.7421 82.091H86.0921V103H82.4671ZM95.0162 103V88.413H89.8542V85.658H90.6952C92.0872 85.658 93.1602 85.3293 93.9142 84.672C94.6682 84.0147 95.0935 83.1543 95.1902 82.091H98.6412V103H95.0162ZM106.656 103V88.413H101.494V85.658H102.335C103.727 85.658 104.8 85.3293 105.554 84.672C106.308 84.0147 106.733 83.1543 106.83 82.091H110.281V103H106.656ZM112.989 107.321C113.704 106.528 114.303 105.716 114.787 104.885C115.289 104.073 115.599 103.348 115.715 102.71L116.005 102.913C115.927 102.952 115.831 102.99 115.715 103.029C115.599 103.068 115.473 103.087 115.338 103.087C114.777 103.087 114.342 102.932 114.033 102.623C113.723 102.294 113.569 101.888 113.569 101.405C113.569 100.864 113.743 100.429 114.091 100.1C114.458 99.752 114.932 99.578 115.512 99.578C116.092 99.578 116.575 99.7713 116.962 100.158C117.348 100.545 117.542 101.105 117.542 101.84C117.542 102.323 117.464 102.826 117.31 103.348C117.155 103.87 116.952 104.382 116.7 104.885C116.449 105.388 116.169 105.842 115.86 106.248C115.57 106.673 115.28 107.031 114.99 107.321H112.989ZM126.835 103.29C125.598 103.29 124.506 103.048 123.558 102.565C122.611 102.082 121.809 101.386 121.151 100.477C120.513 99.5683 120.02 98.447 119.672 97.113C119.344 95.779 119.179 94.271 119.179 92.589C119.179 90.153 119.498 88.1423 120.136 86.557C120.774 84.9717 121.673 83.7923 122.833 83.019C123.993 82.2457 125.327 81.859 126.835 81.859C128.073 81.859 129.165 82.1007 130.112 82.584C131.079 83.0673 131.881 83.773 132.519 84.701C133.177 85.6097 133.67 86.731 133.998 88.065C134.327 89.3797 134.491 90.8877 134.491 92.589C134.491 95.025 134.172 97.0357 133.534 98.621C132.896 100.187 132.007 101.357 130.866 102.13C129.726 102.903 128.382 103.29 126.835 103.29ZM126.835 100.216C127.493 100.216 128.063 100.081 128.546 99.81C129.049 99.52 129.465 99.0753 129.793 98.476C130.141 97.8767 130.393 97.0937 130.547 96.127C130.721 95.141 130.808 93.9617 130.808 92.589C130.808 91.197 130.721 90.0177 130.547 89.051C130.393 88.065 130.141 87.2723 129.793 86.673C129.465 86.0737 129.049 85.629 128.546 85.339C128.063 85.049 127.493 84.904 126.835 84.904C126.197 84.904 125.627 85.049 125.124 85.339C124.641 85.629 124.225 86.0737 123.877 86.673C123.549 87.2723 123.297 88.065 123.123 89.051C122.949 90.0177 122.862 91.197 122.862 92.589C122.862 93.9617 122.949 95.141 123.123 96.127C123.297 97.0937 123.549 97.8767 123.877 98.476C124.225 99.0753 124.641 99.52 125.124 99.81C125.627 100.081 126.197 100.216 126.835 100.216ZM141.66 103V88.413H136.498V85.658H137.339C138.731 85.658 139.804 85.3293 140.558 84.672C141.312 84.0147 141.737 83.1543 141.834 82.091H145.285V103H141.66ZM148.572 103V102.159C148.572 101.057 148.756 100.071 149.123 99.201C149.51 98.3117 150.013 97.519 150.631 96.823C151.25 96.127 151.927 95.489 152.661 94.909C153.415 94.3097 154.16 93.749 154.894 93.227C155.648 92.6857 156.335 92.154 156.953 91.632C157.572 91.11 158.065 90.559 158.432 89.979C158.819 89.399 159.012 88.761 159.012 88.065C159.012 87.4077 158.877 86.847 158.606 86.383C158.336 85.919 157.949 85.571 157.446 85.339C156.963 85.0877 156.383 84.962 155.706 84.962C154.952 84.962 154.295 85.1167 153.734 85.426C153.193 85.7353 152.777 86.1607 152.487 86.702C152.217 87.2433 152.081 87.862 152.081 88.558H148.485C148.524 87.1853 148.853 86.006 149.471 85.02C150.09 84.0147 150.941 83.2413 152.023 82.7C153.125 82.1393 154.411 81.859 155.88 81.859C157.272 81.859 158.471 82.12 159.476 82.642C160.501 83.1447 161.284 83.8503 161.825 84.759C162.386 85.6677 162.666 86.7213 162.666 87.92C162.666 88.8093 162.502 89.6117 162.173 90.327C161.845 91.0423 161.41 91.6997 160.868 92.299C160.327 92.8983 159.718 93.459 159.041 93.981C158.384 94.4837 157.707 94.9767 157.011 95.46C156.335 95.924 155.687 96.388 155.068 96.852C154.45 97.2967 153.918 97.7703 153.473 98.273C153.048 98.7563 152.748 99.2783 152.574 99.839H162.695V103H148.572ZM167.251 103.232C166.671 103.232 166.197 103.068 165.83 102.739C165.482 102.391 165.308 101.946 165.308 101.405C165.308 100.844 165.482 100.4 165.83 100.071C166.197 99.7423 166.671 99.578 167.251 99.578C167.811 99.578 168.266 99.7423 168.614 100.071C168.981 100.4 169.165 100.844 169.165 101.405C169.165 101.946 168.981 102.391 168.614 102.739C168.266 103.068 167.811 103.232 167.251 103.232ZM178.435 103.29C177.198 103.29 176.105 103.048 175.158 102.565C174.211 102.082 173.408 101.386 172.751 100.477C172.113 99.5683 171.62 98.447 171.272 97.113C170.943 95.779 170.779 94.271 170.779 92.589C170.779 90.153 171.098 88.1423 171.736 86.557C172.374 84.9717 173.273 83.7923 174.433 83.019C175.593 82.2457 176.927 81.859 178.435 81.859C179.672 81.859 180.765 82.1007 181.712 82.584C182.679 83.0673 183.481 83.773 184.119 84.701C184.776 85.6097 185.269 86.731 185.598 88.065C185.927 89.3797 186.091 90.8877 186.091 92.589C186.091 95.025 185.772 97.0357 185.134 98.621C184.496 100.187 183.607 101.357 182.466 102.13C181.325 102.903 179.982 103.29 178.435 103.29ZM178.435 100.216C179.092 100.216 179.663 100.081 180.146 99.81C180.649 99.52 181.064 99.0753 181.393 98.476C181.741 97.8767 181.992 97.0937 182.147 96.127C182.321 95.141 182.408 93.9617 182.408 92.589C182.408 91.197 182.321 90.0177 182.147 89.051C181.992 88.065 181.741 87.2723 181.393 86.673C181.064 86.0737 180.649 85.629 180.146 85.339C179.663 85.049 179.092 84.904 178.435 84.904C177.797 84.904 177.227 85.049 176.724 85.339C176.241 85.629 175.825 86.0737 175.477 86.673C175.148 87.2723 174.897 88.065 174.723 89.051C174.549 90.0177 174.462 91.197 174.462 92.589C174.462 93.9617 174.549 95.141 174.723 96.127C174.897 97.0937 175.148 97.8767 175.477 98.476C175.825 99.0753 176.241 99.52 176.724 99.81C177.227 100.081 177.797 100.216 178.435 100.216ZM188.532 103V102.159C188.532 101.057 188.716 100.071 189.083 99.201C189.47 98.3117 189.973 97.519 190.591 96.823C191.21 96.127 191.887 95.489 192.621 94.909C193.375 94.3097 194.12 93.749 194.854 93.227C195.608 92.6857 196.295 92.154 196.913 91.632C197.532 91.11 198.025 90.559 198.392 89.979C198.779 89.399 198.972 88.761 198.972 88.065C198.972 87.4077 198.837 86.847 198.566 86.383C198.296 85.919 197.909 85.571 197.406 85.339C196.923 85.0877 196.343 84.962 195.666 84.962C194.912 84.962 194.255 85.1167 193.694 85.426C193.153 85.7353 192.737 86.1607 192.447 86.702C192.177 87.2433 192.041 87.862 192.041 88.558H188.445C188.484 87.1853 188.813 86.006 189.431 85.02C190.05 84.0147 190.901 83.2413 191.983 82.7C193.085 82.1393 194.371 81.859 195.84 81.859C197.232 81.859 198.431 82.12 199.436 82.642C200.461 83.1447 201.244 83.8503 201.785 84.759C202.346 85.6677 202.626 86.7213 202.626 87.92C202.626 88.8093 202.462 89.6117 202.133 90.327C201.805 91.0423 201.37 91.6997 200.828 92.299C200.287 92.8983 199.678 93.459 199.001 93.981C198.344 94.4837 197.667 94.9767 196.971 95.46C196.295 95.924 195.647 96.388 195.028 96.852C194.41 97.2967 193.878 97.7703 193.433 98.273C193.008 98.7563 192.708 99.2783 192.534 99.839H202.655V103H188.532Z" fill="white"/>
<path d="M52.964 127V122.053L48.374 114.607H50.04L52.114 118.092L53.627 120.744H53.729L55.276 118.092L57.367 114.607H59.016L54.409 122.053V127H52.964ZM62.7779 127.153C62.1319 127.153 61.5426 127.045 61.0099 126.83C60.4886 126.615 60.0352 126.303 59.6499 125.895C59.2759 125.487 58.9812 125.005 58.7659 124.45C58.5619 123.883 58.4599 123.254 58.4599 122.563C58.4599 121.645 58.6356 120.84 58.9869 120.149C59.3382 119.458 59.8369 118.919 60.4829 118.534C61.1402 118.137 61.9052 117.939 62.7779 117.939C63.4239 117.939 64.0076 118.047 64.5289 118.262C65.0616 118.466 65.5149 118.772 65.8889 119.18C66.2629 119.588 66.5519 120.075 66.7559 120.642C66.9599 121.209 67.0619 121.843 67.0619 122.546C67.0619 123.453 66.8862 124.252 66.5349 124.943C66.1949 125.634 65.7019 126.178 65.0559 126.575C64.4099 126.96 63.6506 127.153 62.7779 127.153ZM62.7779 125.963C63.3559 125.963 63.8602 125.833 64.2909 125.572C64.7216 125.3 65.0559 124.909 65.2939 124.399C65.5432 123.878 65.6679 123.26 65.6679 122.546C65.6679 122.013 65.5999 121.537 65.4639 121.118C65.3279 120.687 65.1352 120.325 64.8859 120.03C64.6366 119.724 64.3362 119.492 63.9849 119.333C63.6336 119.174 63.2312 119.095 62.7779 119.095C62.1999 119.095 61.6899 119.237 61.2479 119.52C60.8172 119.792 60.4772 120.183 60.2279 120.693C59.9899 121.203 59.8709 121.826 59.8709 122.563C59.8709 123.084 59.9332 123.56 60.0579 123.991C60.1939 124.41 60.3866 124.767 60.6359 125.062C60.8966 125.357 61.2082 125.583 61.5709 125.742C61.9336 125.889 62.3359 125.963 62.7779 125.963ZM72.3241 127.153C71.6554 127.153 71.0774 127.023 70.5901 126.762C70.1027 126.49 69.7287 126.088 69.4681 125.555C69.2187 125.011 69.0941 124.342 69.0941 123.549V118.075H70.4711V123.209C70.4711 123.798 70.5504 124.303 70.7091 124.722C70.8677 125.13 71.1171 125.442 71.4571 125.657C71.8084 125.872 72.2561 125.98 72.8001 125.98C73.3327 125.98 73.8031 125.85 74.2111 125.589C74.6191 125.328 74.9364 124.96 75.1631 124.484C75.3897 124.008 75.5031 123.458 75.5031 122.835V118.075H76.8801V127H75.5711L75.5031 125.096H75.4011C75.1744 125.731 74.7834 126.235 74.2281 126.609C73.6727 126.972 73.0381 127.153 72.3241 127.153ZM79.457 127V118.075H80.681L80.766 119.724H80.834C81.0267 119.157 81.3667 118.721 81.854 118.415C82.3414 118.109 82.8854 117.956 83.486 117.956C83.588 117.956 83.6844 117.962 83.775 117.973C83.8657 117.973 83.9507 117.979 84.03 117.99V119.299C83.9507 119.288 83.8657 119.282 83.775 119.282C83.6844 119.271 83.588 119.265 83.486 119.265C82.9647 119.265 82.5114 119.361 82.126 119.554C81.7407 119.747 81.4347 120.024 81.208 120.387C80.9927 120.738 80.8624 121.169 80.817 121.679V127H79.457ZM89.7034 127V114.607H91.1484V127H89.7034ZM93.8672 127V118.075H95.1762L95.2272 119.928H95.3292C95.6012 119.271 96.0205 118.778 96.5872 118.449C97.1539 118.109 97.7715 117.939 98.4402 117.939C98.9049 117.939 99.3299 118.007 99.7152 118.143C100.112 118.279 100.452 118.5 100.735 118.806C101.03 119.112 101.257 119.509 101.415 119.996C101.574 120.472 101.653 121.056 101.653 121.747V127H100.276V122.019C100.276 121.35 100.191 120.801 100.021 120.37C99.8625 119.939 99.6132 119.622 99.2732 119.418C98.9445 119.203 98.5195 119.095 97.9982 119.095C97.4429 119.095 96.9555 119.231 96.5362 119.503C96.1169 119.775 95.7939 120.143 95.5672 120.608C95.3405 121.061 95.2272 121.583 95.2272 122.172V127H93.8672ZM106.173 127L102.943 118.075H104.422L106.156 123.311L107.006 125.912H107.074L107.924 123.311L109.658 118.075H111.137L107.907 127H106.173ZM116.077 127.153C115.227 127.153 114.496 126.966 113.884 126.592C113.283 126.218 112.824 125.685 112.507 124.994C112.19 124.303 112.031 123.498 112.031 122.58C112.031 121.639 112.19 120.823 112.507 120.132C112.824 119.429 113.278 118.891 113.867 118.517C114.456 118.132 115.176 117.939 116.026 117.939C116.933 117.939 117.681 118.143 118.27 118.551C118.859 118.959 119.284 119.526 119.545 120.251C119.817 120.976 119.919 121.815 119.851 122.767H113.374C113.385 123.504 113.499 124.121 113.714 124.62C113.941 125.107 114.252 125.476 114.649 125.725C115.057 125.963 115.533 126.082 116.077 126.082C116.712 126.082 117.233 125.935 117.641 125.64C118.049 125.345 118.321 124.954 118.457 124.467H119.783C119.681 125.034 119.454 125.521 119.103 125.929C118.763 126.326 118.332 126.632 117.811 126.847C117.29 127.051 116.712 127.153 116.077 127.153ZM113.391 121.985L113.238 121.781H118.661L118.508 122.019C118.519 121.305 118.423 120.733 118.219 120.302C118.015 119.86 117.72 119.537 117.335 119.333C116.961 119.118 116.525 119.01 116.026 119.01C115.505 119.01 115.051 119.123 114.666 119.35C114.281 119.577 113.975 119.911 113.748 120.353C113.533 120.784 113.414 121.328 113.391 121.985ZM124.967 127.17C124.412 127.17 123.913 127.102 123.471 126.966C123.029 126.83 122.649 126.643 122.332 126.405C122.015 126.156 121.771 125.861 121.601 125.521C121.431 125.17 121.34 124.784 121.329 124.365H122.689C122.712 124.762 122.819 125.096 123.012 125.368C123.216 125.629 123.488 125.821 123.828 125.946C124.179 126.071 124.57 126.133 125.001 126.133C125.692 126.133 126.219 126.003 126.582 125.742C126.956 125.481 127.143 125.113 127.143 124.637C127.143 124.274 127.064 123.997 126.905 123.804C126.746 123.6 126.503 123.441 126.174 123.328C125.845 123.215 125.415 123.118 124.882 123.039C124.145 122.937 123.533 122.795 123.046 122.614C122.559 122.433 122.19 122.178 121.941 121.849C121.692 121.509 121.567 121.067 121.567 120.523C121.567 120.002 121.709 119.548 121.992 119.163C122.275 118.766 122.672 118.46 123.182 118.245C123.692 118.018 124.287 117.905 124.967 117.905C125.658 117.905 126.253 118.018 126.752 118.245C127.251 118.46 127.642 118.772 127.925 119.18C128.208 119.577 128.356 120.053 128.367 120.608H127.024C127.001 120.211 126.899 119.894 126.718 119.656C126.548 119.407 126.31 119.231 126.004 119.129C125.709 119.016 125.358 118.959 124.95 118.959C124.315 118.959 123.822 119.089 123.471 119.35C123.12 119.611 122.944 119.956 122.944 120.387C122.944 120.716 123.029 120.982 123.199 121.186C123.369 121.379 123.63 121.532 123.981 121.645C124.344 121.747 124.797 121.838 125.341 121.917C126.01 122.008 126.582 122.144 127.058 122.325C127.545 122.506 127.914 122.773 128.163 123.124C128.412 123.464 128.537 123.929 128.537 124.518C128.537 125.085 128.39 125.566 128.095 125.963C127.8 126.348 127.381 126.649 126.837 126.864C126.304 127.068 125.681 127.17 124.967 127.17ZM133.26 127C132.636 127 132.16 126.853 131.832 126.558C131.514 126.252 131.356 125.759 131.356 125.079V119.214H129.622V118.075H131.356V115.406L132.716 115.219V118.075H134.79V119.214H132.733V124.858C132.733 125.198 132.812 125.447 132.971 125.606C133.129 125.753 133.362 125.827 133.668 125.827H134.824V127H133.26ZM136.666 127V118.075H137.975L138.026 119.928H138.128C138.389 119.271 138.797 118.778 139.352 118.449C139.907 118.109 140.519 117.939 141.188 117.939C141.868 117.939 142.469 118.103 142.99 118.432C143.511 118.761 143.885 119.31 144.112 120.081H144.248C144.509 119.367 144.928 118.834 145.506 118.483C146.095 118.12 146.753 117.939 147.478 117.939C148.079 117.939 148.611 118.064 149.076 118.313C149.552 118.562 149.926 118.97 150.198 119.537C150.47 120.092 150.606 120.829 150.606 121.747V127H149.246V122.019C149.246 121.35 149.161 120.801 148.991 120.37C148.832 119.939 148.589 119.622 148.26 119.418C147.943 119.203 147.523 119.095 147.002 119.095C146.469 119.095 145.999 119.231 145.591 119.503C145.194 119.775 144.883 120.143 144.656 120.608C144.441 121.061 144.333 121.583 144.333 122.172V127H142.939V122.019C142.939 121.35 142.86 120.801 142.701 120.37C142.542 119.939 142.299 119.622 141.97 119.418C141.653 119.203 141.239 119.095 140.729 119.095C140.185 119.095 139.709 119.231 139.301 119.503C138.904 119.775 138.593 120.143 138.366 120.608C138.139 121.061 138.026 121.583 138.026 122.172V127H136.666ZM156.585 127.153C155.735 127.153 155.004 126.966 154.392 126.592C153.791 126.218 153.332 125.685 153.015 124.994C152.698 124.303 152.539 123.498 152.539 122.58C152.539 121.639 152.698 120.823 153.015 120.132C153.332 119.429 153.786 118.891 154.375 118.517C154.964 118.132 155.684 117.939 156.534 117.939C157.441 117.939 158.189 118.143 158.778 118.551C159.367 118.959 159.792 119.526 160.053 120.251C160.325 120.976 160.427 121.815 160.359 122.767H153.882C153.893 123.504 154.007 124.121 154.222 124.62C154.449 125.107 154.76 125.476 155.157 125.725C155.565 125.963 156.041 126.082 156.585 126.082C157.22 126.082 157.741 125.935 158.149 125.64C158.557 125.345 158.829 124.954 158.965 124.467H160.291C160.189 125.034 159.962 125.521 159.611 125.929C159.271 126.326 158.84 126.632 158.319 126.847C157.798 127.051 157.22 127.153 156.585 127.153ZM153.899 121.985L153.746 121.781H159.169L159.016 122.019C159.027 121.305 158.931 120.733 158.727 120.302C158.523 119.86 158.228 119.537 157.843 119.333C157.469 119.118 157.033 119.01 156.534 119.01C156.013 119.01 155.559 119.123 155.174 119.35C154.789 119.577 154.483 119.911 154.256 120.353C154.041 120.784 153.922 121.328 153.899 121.985ZM162.282 127V118.075H163.591L163.642 119.928H163.744C164.016 119.271 164.436 118.778 165.002 118.449C165.569 118.109 166.187 117.939 166.855 117.939C167.32 117.939 167.745 118.007 168.13 118.143C168.527 118.279 168.867 118.5 169.15 118.806C169.445 119.112 169.672 119.509 169.83 119.996C169.989 120.472 170.068 121.056 170.068 121.747V127H168.691V122.019C168.691 121.35 168.606 120.801 168.436 120.37C168.278 119.939 168.028 119.622 167.688 119.418C167.36 119.203 166.935 119.095 166.413 119.095C165.858 119.095 165.371 119.231 164.951 119.503C164.532 119.775 164.209 120.143 163.982 120.608C163.756 121.061 163.642 121.583 163.642 122.172V127H162.282ZM175.029 127C174.406 127 173.93 126.853 173.601 126.558C173.284 126.252 173.125 125.759 173.125 125.079V119.214H171.391V118.075H173.125V115.406L174.485 115.219V118.075H176.559V119.214H174.502V124.858C174.502 125.198 174.582 125.447 174.74 125.606C174.899 125.753 175.131 125.827 175.437 125.827H176.593V127H175.029ZM49.428 151V138.607H54.188C55.106 138.607 55.888 138.766 56.534 139.083C57.1913 139.389 57.69 139.831 58.03 140.409C58.3813 140.987 58.557 141.678 58.557 142.483C58.557 143.276 58.37 143.968 57.996 144.557C57.6333 145.135 57.1233 145.583 56.466 145.9C55.82 146.206 55.055 146.359 54.171 146.359H50.686V145.169H54.069C55.055 145.169 55.7973 144.925 56.296 144.438C56.806 143.951 57.061 143.31 57.061 142.517C57.061 141.667 56.7947 141.015 56.262 140.562C55.7407 140.109 55.0097 139.882 54.069 139.882H50.601L50.873 139.627V151H49.428ZM64.2056 151.153C63.5596 151.153 62.9703 151.045 62.4376 150.83C61.9163 150.615 61.463 150.303 61.0776 149.895C60.7036 149.487 60.409 149.005 60.1936 148.45C59.9896 147.883 59.8876 147.254 59.8876 146.563C59.8876 145.645 60.0633 144.84 60.4146 144.149C60.766 143.458 61.2646 142.919 61.9106 142.534C62.568 142.137 63.333 141.939 64.2056 141.939C64.8516 141.939 65.4353 142.047 65.9566 142.262C66.4893 142.466 66.9426 142.772 67.3166 143.18C67.6906 143.588 67.9796 144.075 68.1836 144.642C68.3876 145.209 68.4896 145.843 68.4896 146.546C68.4896 147.453 68.314 148.252 67.9626 148.943C67.6226 149.634 67.1296 150.178 66.4836 150.575C65.8376 150.96 65.0783 151.153 64.2056 151.153ZM64.2056 149.963C64.7836 149.963 65.288 149.833 65.7186 149.572C66.1493 149.3 66.4836 148.909 66.7216 148.399C66.971 147.878 67.0956 147.26 67.0956 146.546C67.0956 146.013 67.0276 145.537 66.8916 145.118C66.7556 144.687 66.563 144.325 66.3136 144.03C66.0643 143.724 65.764 143.492 65.4126 143.333C65.0613 143.174 64.659 143.095 64.2056 143.095C63.6276 143.095 63.1176 143.237 62.6756 143.52C62.245 143.792 61.905 144.183 61.6556 144.693C61.4176 145.203 61.2986 145.826 61.2986 146.563C61.2986 147.084 61.361 147.56 61.4856 147.991C61.6216 148.41 61.8143 148.767 62.0636 149.062C62.3243 149.357 62.636 149.583 62.9986 149.742C63.3613 149.889 63.7636 149.963 64.2056 149.963ZM70.5254 151V142.075H71.7494L71.8344 143.724H71.9024C72.0951 143.157 72.4351 142.721 72.9224 142.415C73.4097 142.109 73.9537 141.956 74.5544 141.956C74.6564 141.956 74.7527 141.962 74.8434 141.973C74.9341 141.973 75.0191 141.979 75.0984 141.99V143.299C75.0191 143.288 74.9341 143.282 74.8434 143.282C74.7527 143.271 74.6564 143.265 74.5544 143.265C74.0331 143.265 73.5797 143.361 73.1944 143.554C72.8091 143.747 72.5031 144.024 72.2764 144.387C72.0611 144.738 71.9307 145.169 71.8854 145.679V151H70.5254ZM79.6034 151C78.9801 151 78.5041 150.853 78.1754 150.558C77.8581 150.252 77.6994 149.759 77.6994 149.079V143.214H75.9654V142.075H77.6994V139.406L79.0594 139.219V142.075H81.1334V143.214H79.0764V148.858C79.0764 149.198 79.1557 149.447 79.3144 149.606C79.4731 149.753 79.7054 149.827 80.0114 149.827H81.1674V151H79.6034ZM83.634 151V143.18H82.138V142.075H83.634V140.596C83.634 139.927 83.821 139.429 84.195 139.1C84.569 138.771 85.0903 138.607 85.759 138.607H86.983V139.712H86.048C85.64 139.712 85.3623 139.808 85.215 140.001C85.0677 140.182 84.994 140.437 84.994 140.766V142.075H86.83V143.18H84.994V151H83.634ZM91.9635 151.153C91.3175 151.153 90.7281 151.045 90.1955 150.83C89.6741 150.615 89.2208 150.303 88.8355 149.895C88.4615 149.487 88.1668 149.005 87.9515 148.45C87.7475 147.883 87.6455 147.254 87.6455 146.563C87.6455 145.645 87.8211 144.84 88.1725 144.149C88.5238 143.458 89.0225 142.919 89.6685 142.534C90.3258 142.137 91.0908 141.939 91.9635 141.939C92.6095 141.939 93.1931 142.047 93.7145 142.262C94.2471 142.466 94.7005 142.772 95.0745 143.18C95.4485 143.588 95.7375 144.075 95.9415 144.642C96.1455 145.209 96.2475 145.843 96.2475 146.546C96.2475 147.453 96.0718 148.252 95.7205 148.943C95.3805 149.634 94.8875 150.178 94.2415 150.575C93.5955 150.96 92.8361 151.153 91.9635 151.153ZM91.9635 149.963C92.5415 149.963 93.0458 149.833 93.4765 149.572C93.9071 149.3 94.2415 148.909 94.4795 148.399C94.7288 147.878 94.8535 147.26 94.8535 146.546C94.8535 146.013 94.7855 145.537 94.6495 145.118C94.5135 144.687 94.3208 144.325 94.0715 144.03C93.8221 143.724 93.5218 143.492 93.1705 143.333C92.8191 143.174 92.4168 143.095 91.9635 143.095C91.3855 143.095 90.8755 143.237 90.4335 143.52C90.0028 143.792 89.6628 144.183 89.4135 144.693C89.1755 145.203 89.0565 145.826 89.0565 146.563C89.0565 147.084 89.1188 147.56 89.2435 147.991C89.3795 148.41 89.5721 148.767 89.8215 149.062C90.0821 149.357 90.3938 149.583 90.7565 149.742C91.1191 149.889 91.5215 149.963 91.9635 149.963ZM98.2832 151V138.607H99.6602V151H98.2832ZM102.251 151V142.075H103.628V151H102.251ZM102.965 140.545C102.704 140.545 102.495 140.477 102.336 140.341C102.177 140.194 102.098 140.001 102.098 139.763C102.098 139.525 102.177 139.338 102.336 139.202C102.495 139.066 102.704 138.998 102.965 138.998C103.214 138.998 103.418 139.066 103.577 139.202C103.736 139.338 103.815 139.525 103.815 139.763C103.815 140.001 103.736 140.194 103.577 140.341C103.418 140.477 103.214 140.545 102.965 140.545ZM109.993 151.153C109.347 151.153 108.757 151.045 108.225 150.83C107.703 150.615 107.25 150.303 106.865 149.895C106.491 149.487 106.196 149.005 105.981 148.45C105.777 147.883 105.675 147.254 105.675 146.563C105.675 145.645 105.85 144.84 106.202 144.149C106.553 143.458 107.052 142.919 107.698 142.534C108.355 142.137 109.12 141.939 109.993 141.939C110.639 141.939 111.222 142.047 111.744 142.262C112.276 142.466 112.73 142.772 113.104 143.18C113.478 143.588 113.767 144.075 113.971 144.642C114.175 145.209 114.277 145.843 114.277 146.546C114.277 147.453 114.101 148.252 113.75 148.943C113.41 149.634 112.917 150.178 112.271 150.575C111.625 150.96 110.865 151.153 109.993 151.153ZM109.993 149.963C110.571 149.963 111.075 149.833 111.506 149.572C111.936 149.3 112.271 148.909 112.509 148.399C112.758 147.878 112.883 147.26 112.883 146.546C112.883 146.013 112.815 145.537 112.679 145.118C112.543 144.687 112.35 144.325 112.101 144.03C111.851 143.724 111.551 143.492 111.2 143.333C110.848 143.174 110.446 143.095 109.993 143.095C109.415 143.095 108.905 143.237 108.463 143.52C108.032 143.792 107.692 144.183 107.443 144.693C107.205 145.203 107.086 145.826 107.086 146.563C107.086 147.084 107.148 147.56 107.273 147.991C107.409 148.41 107.601 148.767 107.851 149.062C108.111 149.357 108.423 149.583 108.786 149.742C109.148 149.889 109.551 149.963 109.993 149.963Z" fill="white"/>
<circle cx="48" cy="45.6655" r="5" fill="#107050"/>
<circle cx="65.5" cy="45.6655" r="5" fill="#D4AF37"/>
<circle cx="83" cy="45.6655" r="5" fill="#E7F1EE"/>
<defs>
<filter id="filter0_d_51_320" x="0" y="0" width="280" height="280" filterUnits="userSpaceOnUse" color-interpolation-filters="sRGB">
<feFlood flood-opacity="0" result="BackgroundImageFix"/>
<feColorMatrix in="SourceAlpha" type="matrix" values="0 0 0 0 0 0 0 0 0 0 0 0 0 0 0 0 0 0 127 0" result="hardAlpha"/>
<feOffset dx="12" dy="12"/>
<feGaussianBlur stdDeviation="20"/>
<feComposite in2="hardAlpha" operator="out"/>
<feColorMatrix type="matrix" values="0 0 0 0 0 0 0 0 0 0 0 0 0 0 0 0 0 0 0.06 0"/>
<feBlend mode="normal" in2="BackgroundImageFix" result="effect1_dropShadow_51_320"/>
<feBlend mode="normal" in="SourceGraphic" in2="effect1_dropShadow_51_320" result="shape"/>
</filter>
<linearGradient id="paint0_linear_51_320" x1="129.5" y1="226" x2="129.5" y2="116" gradientUnits="userSpaceOnUse">
<stop stop-color="#1668E8"/>
<stop offset="1" stop-color="#0A1F3C"/>
</linearGradient>
<linearGradient id="paint1_linear_51_320" x1="148" y1="228" x2="148" y2="77" gradientUnits="userSpaceOnUse">
<stop stop-color="#1668E8"/>
<stop offset="1" stop-color="#0A1F3C"/>
</linearGradient>
<linearGradient id="paint2_linear_51_320" x1="162.739" y1="228" x2="162.739" y2="36" gradientUnits="userSpaceOnUse">
<stop stop-color="#1668E8"/>
<stop offset="1" stop-color="#0A1F3C"/>
</linearGradient>
</defs>
</svg>
